# xmcd CD database file
#
# Track frame offsets:
#	150
#	9935
#	27112
#	56611
#	68447
#	81745
#	109934
#	125655
#	143409
#	176664
#	197384
#	208146
#	223372
#
# Disc length: 3316 seconds
#
# Revision: 0
# Processed by: cddbd v1.4PL0 Copyright (c) Steve Scherf et al.
# Submitted via: CDex 1.40Release
#
DISCID=ba0cf20d
DTITLE=Louisiana Red - Over my head
DYEAR=1900
DGENRE=Blues
TTITLE0=Living in a world of sin
TTITLE1=Concita
TTITLE2=Blue face in the window
TTITLE3=Run, Red run
TTITLE4=Wrestling Jacob
TTITLE5=You never loose
TTITLE6=Hi type woman
TTITLE7=Bernice
TTITLE8=How long is a man got to suffer?
TTITLE9=Blow train
TTITLE10=Certainly lord
TTITLE11=Over my head
TTITLE12=John Henry
EXTD=ID3G: 0
EXTT0=
EXTT1=
EXTT2=
EXTT3=
EXTT4=
EXTT5=
EXTT6=
EXTT7=
EXTT8=
EXTT9=
EXTT10=
EXTT11=
EXTT12=
PLAYORDER=
